<?xml version="1.0" standalone="no"?>
<!DOCTYPE svg PUBLIC "-//W3C//DTD SVG 20010904//EN"
 "http://www.w3.org/TR/2001/REC-SVG-20010904/DTD/svg10.dtd">
<svg version="1.0" xmlns="http://www.w3.org/2000/svg"
 width="600.000000pt" height="600.000000pt" viewBox="0 0 600.000000 600.000000"
 preserveAspectRatio="xMidYMid meet">
<metadata>
Created by potrace 1.14, written by Peter Selinger 2001-2017
</metadata>
<g transform="translate(0.000000,600.000000) scale(0.100000,-0.100000)"
fill="#000000" stroke="none">
<path d="M1810 5292 c-27 -23 -93 -199 -86 -228 4 -13 35 -85 71 -160 36 -75
65 -137 65 -139 0 -1 29 -63 65 -138 36 -75 65 -140 65 -145 0 -5 -6 -9 -12
-9 -20 0 -258 -14 -308 -18 -25 -2 -92 -6 -150 -10 -58 -4 -120 -8 -138 -10
-18 -1 -40 -9 -49 -17 -16 -17 -73 -197 -73 -233 0 -36 27 -51 190 -105 85
-28 158 -54 163 -59 4 -4 -41 -8 -100 -8 -117 0 -362 -11 -403 -17 -14 -3 -65
-7 -115 -11 -49 -4 -92 -8 -95 -10 -3 -2 -30 -6 -60 -9 -30 -3 -66 -8 -80 -11
-14 -3 -42 -7 -62 -10 -162 -21 -559 -121 -584 -148 -7 -7 -32 -75 -57 -152
-39 -120 -44 -143 -33 -160 12 -19 126 -59 586 -209 175 -57 465 -150 470
-151 3 0 98 -31 211 -68 114 -37 212 -67 218 -67 6 0 19 -4 29 -10 9 -5 97
-35 194 -65 166 -53 177 -58 182 -83 6 -30 16 -130 31 -302 4 -41 8 -82 10
-90 2 -8 6 -51 10 -95 3 -44 11 -92 16 -106 11 -28 46 -49 82 -49 17 -1 41
-31 112 -146 55 -89 100 -151 115 -159 14 -7 62 -18 108 -25 45 -7 82 -15 83
-19 1 -3 2 -28 4 -56 4 -69 15 -185 19 -215 3 -14 9 -56 15 -95 9 -59 31 -153
70 -300 32 -118 142 -337 228 -454 50 -67 164 -191 176 -191 53 0 165 118 270
282 35 56 117 219 117 235 0 4 7 21 15 36 21 40 69 215 94 337 23 120 29 161
37 280 3 47 7 98 8 115 2 28 5 30 72 42 149 28 129 12 230 172 93 149 99 156
147 166 29 6 59 34 63 59 1 7 5 49 8 92 4 44 9 97 12 119 2 22 6 60 8 85 5 49
17 183 21 215 1 11 3 36 4 56 l1 35 168 53 c162 52 245 79 837 269 154 50 312
101 350 113 39 12 158 50 265 84 107 35 206 66 220 70 38 11 60 35 60 66 0 15
-20 85 -45 156 -25 70 -45 129 -45 131 0 19 -480 136 -645 156 -27 4 -63 9
-80 12 -41 7 -77 11 -160 19 -38 4 -86 8 -105 11 -68 8 -276 17 -402 18 -70 0
-124 4 -120 7 4 3 79 30 167 58 168 55 195 70 195 106 0 34 -56 215 -71 231
-18 17 -41 20 -174 29 -61 3 -132 8 -160 10 -49 4 -287 18 -312 18 -20 0 -16
18 18 88 17 35 44 91 59 124 15 33 49 105 75 160 93 196 102 219 98 250 -2 16
-8 34 -12 40 -5 5 -18 40 -30 77 -24 72 -36 87 -74 94 -34 6 -38 0 -265 -346
-106 -162 -254 -387 -328 -500 -115 -176 -139 -207 -170 -219 -32 -13 -41 -12
-87 4 -78 28 -191 28 -260 1 -39 -17 -60 -20 -72 -13 -31 17 -119 37 -165 37
-52 -1 -125 -15 -157 -32 -17 -8 -32 -8 -61 0 -34 11 -49 29 -190 244 -445
677 -515 783 -519 795 -4 11 -30 24 -60 29 -7 1 -22 -5 -33 -14z"/>
</g>
</svg>
